<?xml version="1.0" encoding="UTF-8" standalone="no"?>
<svg
   xmlns:dc="http://purl.org/dc/elements/1.1/"
   xmlns:cc="http://creativecommons.org/ns#"
   xmlns:rdf="http://www.w3.org/1999/02/22-rdf-syntax-ns#"
   xmlns:svg="http://www.w3.org/2000/svg"
   xmlns="http://www.w3.org/2000/svg"
   xmlns:sodipodi="http://sodipodi.sourceforge.net/DTD/sodipodi-0.dtd"
   xmlns:inkscape="http://www.inkscape.org/namespaces/inkscape"
   sodipodi:docname="block_logo.svg"
   inkscape:version="1.0beta2 (unknown)"
   id="svg8"
   version="1.1"
   viewBox="0 0 210 297"
   height="297mm"
   width="210mm"
   inkscape:export-filename="/Users/mowie/Documents/projects/personal/wausaujs_logo2.png"
   inkscape:export-xdpi="96"
   inkscape:export-ydpi="96">
  <defs
     id="defs2" />
  <sodipodi:namedview
     inkscape:window-maximized="1"
     inkscape:window-y="27"
     inkscape:window-x="0"
     inkscape:window-height="836"
     inkscape:window-width="1600"
     showborder="false"
     showgrid="false"
     inkscape:document-rotation="0"
     inkscape:current-layer="text914-7"
     inkscape:document-units="mm"
     inkscape:cy="640.05299"
     inkscape:cx="750.70265"
     inkscape:zoom="0.12374369"
     inkscape:pageshadow="2"
     inkscape:pageopacity="0.0"
     borderopacity="1.0"
     bordercolor="#666666"
     pagecolor="#ffffff"
     id="base" />
  <metadata
     id="metadata5">
    <rdf:RDF>
      <cc:Work
         rdf:about="">
        <dc:format>image/svg+xml</dc:format>
        <dc:type
           rdf:resource="http://purl.org/dc/dcmitype/StillImage" />
        <dc:title />
      </cc:Work>
    </rdf:RDF>
  </metadata>
  <g
     id="layer1"
     inkscape:groupmode="layer"
     inkscape:label="Layer 1">
    <rect
       y="-32.301491"
       x="-579.34845"
       height="244.12709"
       width="781.87268"
       id="rect895"
       style="fill:#323330;fill-opacity:1;stroke:#323330;stroke-width:34.20611572;stroke-miterlimit:5.80000019;stroke-opacity:1" />
    <g
       style="font-style:normal;font-weight:normal;font-size:180.356px;line-height:1.25;font-family:sans-serif;fill:#f0db4f;fill-opacity:1;stroke:none;stroke-width:4.5089"
       id="text914-7"
       aria-label="WAUSAU">
      <path
         id="path1581"
         style="font-style:normal;font-variant:normal;font-weight:bold;font-stretch:normal;font-size:180.356px;font-family:'Neutra Text';-inkscape-font-specification:'Neutra Text Bold';font-variant-ligatures:normal;font-variant-caps:normal;font-variant-numeric:normal;font-variant-east-asian:normal;fill:#f0db4f;fill-opacity:1;stroke-width:4.5089"
         d="m -473.95605,202.92016 h 2.52499 l 28.6766,-59.15676 c 3.24641,-6.85353 7.03388,-18.21596 7.03388,-18.21596 0,0 3.60712,11.36243 6.85353,18.21596 l 27.59447,59.15676 h 2.52498 l 44.54794,-123.724214 h -24.52842 l -17.67489,49.237184 c -3.06605,8.47674 -6.49281,22.18379 -6.49281,22.18379 0,0 -3.60712,-13.88741 -7.57496,-22.18379 l -23.98734,-50.31932 h -2.52499 l -23.62663,50.31932 c -3.96784,8.29638 -7.57496,22.18379 -7.57496,22.18379 0,0 -3.42676,-13.70705 -6.49281,-22.18379 l -17.85525,-49.237184 h -26.69269 z" />
      <path
         id="path1583"
         style="font-style:normal;font-variant:normal;font-weight:bold;font-stretch:normal;font-size:180.356px;font-family:'Neutra Text';-inkscape-font-specification:'Neutra Text Bold';font-variant-ligatures:normal;font-variant-caps:normal;font-variant-numeric:normal;font-variant-east-asian:normal;fill:#f0db4f;fill-opacity:1;stroke-width:4.5089"
         d="m -365.56267,201.83803 h 24.34806 l 5.7714,-13.88741 h 49.77825 l 5.77139,13.88741 h 26.51234 L -309.47195,78.11381 h -2.16427 z m 38.59619,-34.98907 8.83744,-21.282 c 3.60712,-8.65709 7.21424,-22.00344 7.21424,-22.00344 0,0 3.78748,13.34635 7.3946,22.00344 l 8.83744,21.282 z" />
      <path
         id="path1585"
         style="font-style:normal;font-variant:normal;font-weight:bold;font-stretch:normal;font-size:180.356px;font-family:'Neutra Text';-inkscape-font-specification:'Neutra Text Bold';font-variant-ligatures:normal;font-variant-caps:normal;font-variant-numeric:normal;font-variant-east-asian:normal;fill:#f0db4f;fill-opacity:1;stroke-width:4.5089"
         d="m -194.76576,203.46123 c 27.95518,0 49.41754,-14.96955 49.41754,-45.99078 V 79.195946 h -25.24984 V 156.0276 c 0,17.85525 -7.57495,24.70878 -24.1677,24.70878 -16.77311,0 -24.52842,-6.85353 -24.52842,-24.70878 V 79.195946 h -25.24984 v 78.274504 c 0,31.02123 21.46236,45.99078 49.77826,45.99078 z" />
      <path
         id="path1587"
         style="font-style:normal;font-variant:normal;font-weight:bold;font-stretch:normal;font-size:180.356px;font-family:'Neutra Text';-inkscape-font-specification:'Neutra Text Bold';font-variant-ligatures:normal;font-variant-caps:normal;font-variant-numeric:normal;font-variant-east-asian:normal;fill:#f0db4f;fill-opacity:1;stroke-width:4.5089"
         d="m -85.831153,203.46123 c 23.987348,0 41.842592,-12.44456 41.842592,-35.16942 0,-21.10165 -12.083852,-30.48016 -33.546216,-39.67832 l -6.31246,-2.70534 c -10.82136,-4.68926 -15.510617,-7.75531 -15.510617,-15.33026 0,-6.1321 4.689257,-10.82136 12.083853,-10.82136 7.21424,0 11.903496,3.06605 16.23204,10.82136 l 19.658804,-12.62492 c -8.296376,-14.608836 -19.83916,-20.199872 -35.890844,-20.199872 -22.544499,0 -36.972979,14.42848 -36.972979,33.365862 0,20.56058 12.08385,30.29981 30.299807,38.05512 l 6.31246,2.70534 c 11.542784,5.04996 18.396312,8.11602 18.396312,16.7731 0,7.21424 -6.673172,12.44457 -17.13382,12.44457 -12.444565,0 -19.478449,-6.49282 -24.889129,-15.33026 l -20.56058,11.90349 c 7.39459,14.60884 22.5445,25.79091 45.990777,25.79091 z" />
      <path
         id="path1589"
         style="font-style:normal;font-variant:normal;font-weight:bold;font-stretch:normal;font-size:180.356px;font-family:'Neutra Text';-inkscape-font-specification:'Neutra Text Bold';font-variant-ligatures:normal;font-variant-caps:normal;font-variant-numeric:normal;font-variant-east-asian:normal;fill:#f0db4f;fill-opacity:1;stroke-width:4.5089"
         d="m -36.954956,201.83803 h 24.348061 l 5.7713919,-13.88741 H 42.942754 l 5.771392,13.88741 H 75.226478 L 19.135761,78.11381 h -2.164272 z m 38.596185,-34.98907 8.837444,-21.282 c 3.60712,-8.65709 7.21424,-22.00344 7.21424,-22.00344 0,0 3.787476,13.34635 7.394596,22.00344 l 8.837445,21.282 z" />
      <path
         id="path1591"
         style="font-style:normal;font-variant:normal;font-weight:bold;font-stretch:normal;font-size:180.356px;font-family:'Neutra Text';-inkscape-font-specification:'Neutra Text Bold';font-variant-ligatures:normal;font-variant-caps:normal;font-variant-numeric:normal;font-variant-east-asian:normal;fill:#f0db4f;fill-opacity:1;stroke-width:4.5089"
         d="m 133.8419,203.46123 c 27.95518,0 49.41755,-14.96955 49.41755,-45.99078 V 79.195946 H 158.00961 V 156.0276 c 0,17.85525 -7.57495,24.70878 -24.16771,24.70878 -16.7731,0 -24.52841,-6.85353 -24.52841,-24.70878 V 79.195946 H 84.063647 v 78.274504 c 0,31.02123 21.462363,45.99078 49.778253,45.99078 z" />
    </g>
    <g
       style="stroke:none"
       transform="matrix(1.0011565,0,0,1.0011565,-278.62259,-0.08736726)"
       id="g4574">
      <rect
         style="fill:#f0db4f;fill-opacity:1;stroke:none;stroke-width:0.3215158;stroke-opacity:1"
         id="rect4569"
         width="278.01169"
         height="278.01169"
         x="497.67569"
         y="-49.26046" />
      <g
         style="font-style:normal;font-weight:normal;font-size:180.356px;line-height:1.25;font-family:sans-serif;fill:#323330;fill-opacity:1;stroke:none;stroke-width:4.5089"
         id="text914-7-6"
         aria-label="JS">
        <path
           id="path1576"
           style="font-style:normal;font-variant:normal;font-weight:bold;font-stretch:normal;font-size:180.356px;font-family:'Neutra Text';-inkscape-font-specification:'Neutra Text Bold';font-variant-ligatures:normal;font-variant-caps:normal;font-variant-numeric:normal;fill:#323330;fill-opacity:1;stroke:none;stroke-width:4.5089"
           d="m 621.36007,203.77112 c 22.36415,0 37.69441,-11.90349 37.69441,-38.05511 V 79.505837 h -25.24984 v 85.849453 c 0,12.62492 -5.23033,15.87133 -13.5267,15.87133 -8.65709,0 -12.26421,-5.95175 -16.23204,-12.98563 l -20.56059,12.44456 c 5.95175,12.62492 17.67489,23.08557 37.87476,23.08557 z" />
        <path
           id="path1578"
           style="font-style:normal;font-variant:normal;font-weight:bold;font-stretch:normal;font-size:180.356px;font-family:'Neutra Text';-inkscape-font-specification:'Neutra Text Bold';font-variant-ligatures:normal;font-variant-caps:normal;font-variant-numeric:normal;fill:#323330;fill-opacity:1;stroke:none;stroke-width:4.5089"
           d="m 718.75202,203.77112 c 23.98735,0 41.8426,-12.44456 41.8426,-35.16942 0,-21.10165 -12.08386,-30.48016 -33.54622,-39.67832 l -6.31246,-2.70534 c -10.82136,-4.68925 -15.51062,-7.75531 -15.51062,-15.33026 0,-6.1321 4.68926,-10.82136 12.08385,-10.82136 7.21424,0 11.9035,3.06605 16.23204,10.82136 l 19.65881,-12.624919 c -8.29638,-14.608836 -19.83916,-20.199872 -35.89085,-20.199872 -22.5445,0 -36.97298,14.42848 -36.97298,33.365861 0,20.56058 12.08386,30.29981 30.29981,38.05512 l 6.31246,2.70534 c 11.54279,5.04996 18.39631,8.11602 18.39631,16.7731 0,7.21424 -6.67317,12.44457 -17.13382,12.44457 -12.44456,0 -19.47844,-6.49282 -24.88912,-15.33026 l -20.56059,11.90349 c 7.3946,14.60884 22.5445,25.79091 45.99078,25.79091 z" />
      </g>
    </g>
  </g>
</svg>
