<?xml version="1.0" encoding="UTF-8" standalone="no"?>
<!-- Created with Inkscape (http://www.inkscape.org/) -->

<svg
   xmlns:dc="http://purl.org/dc/elements/1.1/"
   xmlns:cc="http://creativecommons.org/ns#"
   xmlns:rdf="http://www.w3.org/1999/02/22-rdf-syntax-ns#"
   xmlns:svg="http://www.w3.org/2000/svg"
   xmlns="http://www.w3.org/2000/svg"
   xmlns:sodipodi="http://sodipodi.sourceforge.net/DTD/sodipodi-0.dtd"
   xmlns:inkscape="http://www.inkscape.org/namespaces/inkscape"
   width="210mm"
   height="297mm"
   viewBox="0 0 210 297"
   version="1.1"
   id="svg4804"
   inkscape:version="0.92.4 (f8dce91, 2019-08-02)"
   sodipodi:docname="wausaujs_logo8.svg"
   inkscape:export-filename="/home/sam/Documents/projects/wausaujs_logo8.svg.png"
   inkscape:export-xdpi="300"
   inkscape:export-ydpi="300">
  <defs
     id="defs4798" />
  <sodipodi:namedview
     id="base"
     pagecolor="#ffffff"
     bordercolor="#666666"
     borderopacity="1.0"
     inkscape:pageopacity="0.0"
     inkscape:pageshadow="2"
     inkscape:zoom="3.959798"
     inkscape:cx="-1931.9557"
     inkscape:cy="-70.143269"
     inkscape:document-units="mm"
     inkscape:current-layer="g4929"
     showgrid="false"
     inkscape:window-width="3200"
     inkscape:window-height="1672"
     inkscape:window-x="0"
     inkscape:window-y="54"
     inkscape:window-maximized="1" />
  <metadata
     id="metadata4801">
    <rdf:RDF>
      <cc:Work
         rdf:about="">
        <dc:format>image/svg+xml</dc:format>
        <dc:type
           rdf:resource="http://purl.org/dc/dcmitype/StillImage" />
        <dc:title />
      </cc:Work>
    </rdf:RDF>
  </metadata>
  <g
     inkscape:label="Layer 1"
     inkscape:groupmode="layer"
     id="layer1">
    <g
       id="g4931"
       transform="matrix(0.26458333,0,0,0.26458333,-537.33095,281.27619)">
      <g
         id="g4929"
         transform="translate(-21.465742,101.26779)">
        <g
           id="g5057"
           transform="matrix(1.8293322,0,0,1.8293322,-30.241793,-87.165342)">
          <text
             id="text4808"
             y="332.57034"
             x="-546.56537"
             style="font-style:normal;font-weight:normal;font-size:10.58333302px;line-height:1.25;font-family:sans-serif;letter-spacing:0px;word-spacing:0px;fill:#000000;fill-opacity:1;stroke:none;stroke-width:0.26458332"
             xml:space="preserve"
             transform="matrix(3.7795276,0,0,3.7795276,2052.3229,-1164.3589)"><tspan
               style="font-style:normal;font-variant:normal;font-weight:bold;font-stretch:normal;font-size:10.58333302px;font-family:'Neutra Text';-inkscape-font-specification:'Neutra Text, Bold';font-variant-ligatures:normal;font-variant-caps:normal;font-variant-numeric:normal;font-feature-settings:normal;text-align:start;writing-mode:lr-tb;text-anchor:start;stroke-width:0.26458332"
               y="332.57034"
               x="-546.56537"
               id="tspan4806"
               sodipodi:role="line">WAUSAU.JS</tspan></text>
          <path
             id="path4921"
             d="M -24.441636,70.871334 V 61.61854 c 0,-1.274572 1.036312,-2.313198 2.313198,-2.313198 1.279199,0 2.313198,-1.036313 2.313198,-2.313198 0,-1.276886 -1.033999,-2.313199 -2.313198,-2.313199 -3.82603,0 -6.939595,3.113565 -6.939595,6.939595 v 9.252794 c 0,2.551458 -2.074939,4.626396 -4.626397,4.626396 -1.279198,0 -2.313198,1.036313 -2.313198,2.313199 0,1.276885 1.034,2.313198 2.313198,2.313198 2.551458,0 4.626397,2.074939 4.626397,4.626397 v 9.252793 c 0,3.82603 3.113565,6.939603 6.939595,6.939603 1.279199,0 2.313198,-1.036324 2.313198,-2.313206 0,-1.276886 -1.033999,-2.313199 -2.313198,-2.313199 -1.276886,0 -2.313198,-1.038626 -2.313198,-2.313198 v -9.252793 c 0,-2.775838 -1.253754,-5.241708 -3.19684,-6.939595 1.943086,-1.697888 3.19684,-4.163757 3.19684,-6.939595 z"
             style="fill:#eeaf4b;stroke-width:2.31319833"
             inkscape:connector-curvature="0" />
          <path
             id="path4921-6"
             d="m 207.85006,71.681876 v -9.2528 c 0,-1.2746 -1.0363,-2.3132 -2.3132,-2.3132 -1.2792,0 -2.3132,-1.0363 -2.3132,-2.3132 0,-1.2769 1.034,-2.3132 2.3132,-2.3132 3.826,0 6.9396,3.1135 6.9396,6.9396 v 9.2528 c 0,2.5514 2.0749,4.6264 4.6264,4.6264 1.2792,0 2.3132,1.0363 2.3132,2.3132 0,1.2769 -1.034,2.3132 -2.3132,2.3132 -2.5515,0 -4.6264,2.0749 -4.6264,4.6264 v 9.2528 c 0,3.825997 -3.1136,6.939594 -6.9396,6.939594 -1.2792,0 -2.3132,-1.0364 -2.3132,-2.313197 0,-1.276897 1.034,-2.313197 2.3132,-2.313197 1.2769,0 2.3132,-1.0387 2.3132,-2.3132 v -9.2528 c 0,-2.7759 1.2538,-5.2417 3.1968,-6.9396 -1.943,-1.6979 -3.1968,-4.1638 -3.1968,-6.9396 z"
             style="fill:#eeaf4b;stroke-width:2.31319833"
             inkscape:connector-curvature="0" />
          <text
             id="text5047"
             y="95.583206"
             x="222.88155"
             style="font-style:normal;font-weight:normal;font-size:43.98764801px;line-height:1.25;font-family:sans-serif;letter-spacing:0px;word-spacing:0px;fill:#000000;fill-opacity:1;stroke:none;stroke-width:1.09969127"
             xml:space="preserve"><tspan
               style="stroke-width:1.09969127"
               y="95.583206"
               x="222.88155"
               id="tspan5045"
               sodipodi:role="line">;</tspan></text>
        </g>
      </g>
    </g>
    <g
       id="g4933"
       transform="matrix(0.26458333,0,0,0.26458333,-537.33095,281.27619)" />
    <g
       id="g4935"
       transform="matrix(0.26458333,0,0,0.26458333,-537.33095,281.27619)" />
    <g
       id="g4937"
       transform="matrix(0.26458333,0,0,0.26458333,-537.33095,281.27619)" />
    <g
       id="g4939"
       transform="matrix(0.26458333,0,0,0.26458333,-537.33095,281.27619)" />
    <g
       id="g4941"
       transform="matrix(0.26458333,0,0,0.26458333,-537.33095,281.27619)" />
    <g
       id="g4943"
       transform="matrix(0.26458333,0,0,0.26458333,-537.33095,281.27619)" />
    <g
       id="g4945"
       transform="matrix(0.26458333,0,0,0.26458333,-537.33095,281.27619)" />
    <g
       id="g4947"
       transform="matrix(0.26458333,0,0,0.26458333,-537.33095,281.27619)" />
    <g
       id="g4949"
       transform="matrix(0.26458333,0,0,0.26458333,-537.33095,281.27619)" />
    <g
       id="g4951"
       transform="matrix(0.26458333,0,0,0.26458333,-537.33095,281.27619)" />
    <g
       id="g4953"
       transform="matrix(0.26458333,0,0,0.26458333,-537.33095,281.27619)" />
    <g
       id="g4955"
       transform="matrix(0.26458333,0,0,0.26458333,-537.33095,281.27619)" />
    <g
       id="g4957"
       transform="matrix(0.26458333,0,0,0.26458333,-537.33095,281.27619)" />
    <g
       id="g4959"
       transform="matrix(0.26458333,0,0,0.26458333,-537.33095,281.27619)" />
    <g
       id="g4961"
       transform="matrix(0.26458333,0,0,0.26458333,-537.33095,281.27619)" />
  </g>
</svg>
