<?xml version="1.0" encoding="UTF-8" standalone="no"?>
<svg
   xmlns:dc="http://purl.org/dc/elements/1.1/"
   xmlns:cc="http://creativecommons.org/ns#"
   xmlns:rdf="http://www.w3.org/1999/02/22-rdf-syntax-ns#"
   xmlns:svg="http://www.w3.org/2000/svg"
   xmlns="http://www.w3.org/2000/svg"
   xmlns:sodipodi="http://sodipodi.sourceforge.net/DTD/sodipodi-0.dtd"
   xmlns:inkscape="http://www.inkscape.org/namespaces/inkscape"
   inkscape:export-ydpi="300"
   inkscape:export-xdpi="300"
   inkscape:export-filename="/Users/mowie/Documents/projects/personal/wausaujs/wausaujs_logo4.png"
   sodipodi:docname="wausaujs_logo4.svg"
   inkscape:version="1.0beta2 (2b71d25, 2019-12-03)"
   id="svg8"
   version="1.1"
   viewBox="0 0 210 297"
   height="297mm"
   width="210mm">
  <defs
     id="defs2" />
  <sodipodi:namedview
     inkscape:window-maximized="0"
     inkscape:window-y="23"
     inkscape:window-x="0"
     inkscape:window-height="880"
     inkscape:window-width="1600"
     showborder="false"
     showgrid="false"
     inkscape:document-rotation="0"
     inkscape:current-layer="layer1"
     inkscape:document-units="mm"
     inkscape:cy="505.20402"
     inkscape:cx="-865.96126"
     inkscape:zoom="0.175"
     inkscape:pageshadow="2"
     inkscape:pageopacity="0.0"
     borderopacity="1.0"
     bordercolor="#666666"
     pagecolor="#ffffff"
     id="base" />
  <metadata
     id="metadata5">
    <rdf:RDF>
      <cc:Work
         rdf:about="">
        <dc:format>image/svg+xml</dc:format>
        <dc:type
           rdf:resource="http://purl.org/dc/dcmitype/StillImage" />
        <dc:title></dc:title>
      </cc:Work>
    </rdf:RDF>
  </metadata>
  <g
     id="layer1"
     inkscape:groupmode="layer"
     inkscape:label="Layer 1">
    <rect
       inkscape:export-ydpi="300.70242"
       inkscape:export-xdpi="300.70242"
       y="-60.674095"
       x="-462.0759"
       height="305.7504"
       width="533.84991"
       id="rect634"
       style="opacity:1;fill:#ffffff;fill-opacity:1;stroke-width:333.709;stroke-miterlimit:5.8" />
    <g
       inkscape:export-ydpi="300.70242"
       inkscape:export-xdpi="300.70242"
       transform="matrix(2.0117722,0,0,2.0117722,-255.65396,12.372584)"
       id="g172">
      <g
         id="g107">
	<path
   inkscape:connector-curvature="0"
   style="fill:#e9e9e0"
   d="M 36.985,0 H 7.963 C 7.155,0 6.5,0.655 6.5,1.926 V 55 c 0,0.345 0.655,1 1.463,1 H 48.037 C 48.845,56 49.5,55.345 49.5,55 V 12.978 c 0,-0.696 -0.093,-0.92 -0.257,-1.085 L 37.607,0.257 C 37.442,0.093 37.218,0 36.985,0 Z"
   id="path87" />

	<polygon
   style="fill:#d9d7ca"
   points="49.349,12 37.5,0.151 37.5,12 "
   id="polygon89" />

	<path
   inkscape:connector-curvature="0"
   style="fill:#0096e6"
   d="M 48.037,56 H 7.963 C 7.155,56 6.5,55.345 6.5,54.537 V 39 h 43 V 54.537 C 49.5,55.345 48.845,56 48.037,56 Z"
   id="path91" />

	<g
   id="g99">
		<path
   inkscape:connector-curvature="0"
   style="fill:#ffffff"
   d="m 23.58,51.975 c -0.374,0.364 -0.798,0.638 -1.271,0.82 -0.473,0.182 -0.984,0.273 -1.531,0.273 -0.602,0 -1.155,-0.109 -1.661,-0.328 -0.506,-0.219 -0.948,-0.542 -1.326,-0.971 -0.378,-0.429 -0.675,-0.966 -0.889,-1.613 -0.214,-0.647 -0.321,-1.395 -0.321,-2.242 0,-0.847 0.107,-1.593 0.321,-2.235 0.214,-0.643 0.511,-1.178 0.889,-1.606 0.378,-0.428 0.822,-0.754 1.333,-0.978 0.511,-0.224 1.062,-0.335 1.654,-0.335 0.547,0 1.058,0.091 1.531,0.273 0.473,0.182 0.897,0.456 1.271,0.82 l -1.135,1.012 c -0.228,-0.265 -0.48,-0.456 -0.759,-0.574 -0.279,-0.118 -0.567,-0.178 -0.868,-0.178 -0.337,0 -0.658,0.063 -0.964,0.191 -0.306,0.128 -0.579,0.344 -0.82,0.649 -0.241,0.305 -0.431,0.699 -0.567,1.183 -0.136,0.484 -0.21,1.075 -0.219,1.777 0.009,0.684 0.08,1.267 0.212,1.75 0.132,0.483 0.314,0.877 0.547,1.183 0.233,0.306 0.497,0.528 0.793,0.67 0.296,0.142 0.608,0.212 0.937,0.212 0.329,0 0.636,-0.06 0.923,-0.178 0.287,-0.118 0.549,-0.31 0.786,-0.574 z"
   id="path93" />

		<path
   inkscape:connector-curvature="0"
   style="fill:#ffffff"
   d="m 31.633,50.238 c 0,0.364 -0.075,0.718 -0.226,1.06 -0.151,0.342 -0.362,0.643 -0.636,0.902 -0.274,0.259 -0.61,0.467 -1.012,0.622 -0.402,0.155 -0.856,0.232 -1.367,0.232 -0.219,0 -0.444,-0.012 -0.677,-0.034 -0.233,-0.022 -0.467,-0.062 -0.704,-0.116 -0.237,-0.054 -0.463,-0.13 -0.677,-0.226 -0.214,-0.096 -0.398,-0.212 -0.554,-0.349 l 0.287,-1.176 c 0.128,0.073 0.289,0.144 0.485,0.212 0.196,0.068 0.398,0.132 0.608,0.191 0.21,0.059 0.419,0.107 0.629,0.144 0.21,0.037 0.405,0.055 0.588,0.055 0.556,0 0.982,-0.13 1.278,-0.39 0.296,-0.26 0.444,-0.645 0.444,-1.155 0,-0.31 -0.104,-0.574 -0.314,-0.793 C 29.575,49.198 29.313,49 28.999,48.822 28.685,48.644 28.345,48.467 27.98,48.289 27.615,48.111 27.274,47.901 26.955,47.66 c -0.319,-0.241 -0.583,-0.526 -0.793,-0.854 -0.21,-0.328 -0.314,-0.738 -0.314,-1.23 0,-0.446 0.082,-0.843 0.246,-1.189 0.164,-0.346 0.385,-0.641 0.663,-0.882 0.278,-0.241 0.602,-0.426 0.971,-0.554 0.369,-0.128 0.759,-0.191 1.169,-0.191 0.419,0 0.843,0.039 1.271,0.116 0.428,0.077 0.774,0.203 1.039,0.376 -0.055,0.118 -0.118,0.248 -0.191,0.39 -0.073,0.142 -0.142,0.273 -0.205,0.396 -0.063,0.123 -0.118,0.226 -0.164,0.308 -0.046,0.082 -0.073,0.128 -0.082,0.137 C 30.51,44.456 30.449,44.42 30.38,44.374 30.311,44.328 30.214,44.283 30.086,44.237 29.958,44.191 29.79,44.16 29.58,44.141 c -0.21,-0.019 -0.479,-0.014 -0.807,0.014 -0.183,0.019 -0.355,0.07 -0.52,0.157 -0.165,0.087 -0.31,0.193 -0.438,0.321 -0.128,0.128 -0.228,0.271 -0.301,0.431 -0.073,0.16 -0.109,0.313 -0.109,0.458 0,0.364 0.104,0.658 0.314,0.882 0.21,0.224 0.47,0.419 0.779,0.588 0.309,0.169 0.647,0.333 1.012,0.492 0.365,0.159 0.704,0.354 1.019,0.581 0.315,0.227 0.576,0.513 0.786,0.854 0.21,0.341 0.318,0.781 0.318,1.319 z"
   id="path95" />

		<path
   inkscape:connector-curvature="0"
   style="fill:#ffffff"
   d="m 39.043,50.238 c 0,0.364 -0.075,0.718 -0.226,1.06 -0.151,0.342 -0.362,0.643 -0.636,0.902 -0.274,0.259 -0.61,0.467 -1.012,0.622 -0.402,0.155 -0.856,0.232 -1.367,0.232 -0.219,0 -0.444,-0.012 -0.677,-0.034 -0.233,-0.022 -0.467,-0.062 -0.704,-0.116 -0.237,-0.054 -0.463,-0.13 -0.677,-0.226 -0.214,-0.096 -0.398,-0.212 -0.554,-0.349 l 0.287,-1.176 c 0.128,0.073 0.289,0.144 0.485,0.212 0.196,0.068 0.398,0.132 0.608,0.191 0.21,0.059 0.419,0.107 0.629,0.144 0.21,0.037 0.405,0.055 0.588,0.055 0.556,0 0.982,-0.13 1.278,-0.39 0.296,-0.26 0.444,-0.645 0.444,-1.155 0,-0.31 -0.104,-0.574 -0.314,-0.793 C 36.985,49.198 36.723,49 36.409,48.822 36.095,48.644 35.755,48.467 35.39,48.289 35.025,48.111 34.684,47.901 34.365,47.66 c -0.319,-0.241 -0.583,-0.526 -0.793,-0.854 -0.21,-0.328 -0.314,-0.738 -0.314,-1.23 0,-0.446 0.082,-0.843 0.246,-1.189 0.164,-0.346 0.385,-0.641 0.663,-0.882 0.278,-0.241 0.602,-0.426 0.971,-0.554 0.369,-0.128 0.759,-0.191 1.169,-0.191 0.419,0 0.843,0.039 1.271,0.116 0.428,0.077 0.774,0.203 1.039,0.376 -0.055,0.118 -0.118,0.248 -0.191,0.39 -0.073,0.142 -0.142,0.273 -0.205,0.396 -0.063,0.123 -0.118,0.226 -0.164,0.308 -0.046,0.082 -0.073,0.128 -0.082,0.137 C 37.92,44.456 37.859,44.42 37.79,44.374 37.721,44.328 37.624,44.283 37.496,44.237 37.368,44.191 37.2,44.16 36.99,44.141 c -0.21,-0.019 -0.479,-0.014 -0.807,0.014 -0.183,0.019 -0.355,0.07 -0.52,0.157 -0.165,0.087 -0.31,0.193 -0.438,0.321 -0.128,0.128 -0.228,0.271 -0.301,0.431 -0.073,0.16 -0.109,0.313 -0.109,0.458 0,0.364 0.104,0.658 0.314,0.882 0.21,0.224 0.47,0.419 0.779,0.588 0.309,0.169 0.647,0.333 1.012,0.492 0.365,0.159 0.704,0.354 1.019,0.581 0.315,0.227 0.576,0.513 0.786,0.854 0.21,0.341 0.318,0.781 0.318,1.319 z"
   id="path97" />

	</g>

	<g
   id="g105">
		<path
   inkscape:connector-curvature="0"
   style="fill:#0096e6"
   d="m 19.5,19 v -4 c 0,-0.551 0.448,-1 1,-1 0.553,0 1,-0.448 1,-1 0,-0.552 -0.447,-1 -1,-1 -1.654,0 -3,1.346 -3,3 v 4 c 0,1.103 -0.897,2 -2,2 -0.553,0 -1,0.448 -1,1 0,0.552 0.447,1 1,1 1.103,0 2,0.897 2,2 v 4 c 0,1.654 1.346,3 3,3 0.553,0 1,-0.448 1,-1 0,-0.552 -0.447,-1 -1,-1 -0.552,0 -1,-0.449 -1,-1 v -4 c 0,-1.2 -0.542,-2.266 -1.382,-3 0.84,-0.734 1.382,-1.8 1.382,-3 z"
   id="path101" />

		<path
   inkscape:connector-curvature="0"
   style="fill:#0096e6"
   d="m 39.5,21 c -1.103,0 -2,-0.897 -2,-2 v -4 c 0,-1.654 -1.346,-3 -3,-3 -0.553,0 -1,0.448 -1,1 0,0.552 0.447,1 1,1 0.552,0 1,0.449 1,1 v 4 c 0,1.2 0.542,2.266 1.382,3 -0.84,0.734 -1.382,1.8 -1.382,3 v 4 c 0,0.551 -0.448,1 -1,1 -0.553,0 -1,0.448 -1,1 0,0.552 0.447,1 1,1 1.654,0 3,-1.346 3,-3 v -4 c 0,-1.103 0.897,-2 2,-2 0.553,0 1,-0.448 1,-1 0,-0.552 -0.447,-1 -1,-1 z"
   id="path103" />

	</g>

</g>
      <g
         id="g109">
</g>
      <g
         id="g111">
</g>
      <g
         id="g113">
</g>
      <g
         id="g115">
</g>
      <g
         id="g117">
</g>
      <g
         id="g119">
</g>
      <g
         id="g121">
</g>
      <g
         id="g123">
</g>
      <g
         id="g125">
</g>
      <g
         id="g127">
</g>
      <g
         id="g129">
</g>
      <g
         id="g131">
</g>
      <g
         id="g133">
</g>
      <g
         id="g135">
</g>
      <g
         id="g137">
</g>
    </g>
    <g
       inkscape:export-ydpi="300.70242"
       inkscape:export-xdpi="300.70242"
       transform="matrix(2.0117722,0,0,2.0117722,-354.32788,12.372584)"
       id="g400">
      <g
         id="g334">
	<path
   inkscape:connector-curvature="0"
   style="fill:#e9e9e0"
   d="M 36.985,0 H 7.963 C 7.155,0 6.5,0.655 6.5,1.926 V 55 c 0,0.345 0.655,1 1.463,1 H 48.037 C 48.845,56 49.5,55.345 49.5,55 V 12.978 c 0,-0.696 -0.093,-0.92 -0.257,-1.085 L 37.607,0.257 C 37.442,0.093 37.218,0 36.985,0 Z"
   id="path312" />

	<polygon
   style="fill:#d9d7ca"
   points="37.5,12 49.349,12 37.5,0.151 "
   id="polygon314" />

	<path
   inkscape:connector-curvature="0"
   style="fill:#ec6630"
   d="M 48.037,56 H 7.963 C 7.155,56 6.5,55.345 6.5,54.537 V 39 h 43 V 54.537 C 49.5,55.345 48.845,56 48.037,56 Z"
   id="path316" />

	<g
   id="g326">
		<path
   inkscape:connector-curvature="0"
   style="fill:#ffffff"
   d="M 17.455,42.924 V 53 H 15.814 V 48.461 H 11.453 V 53 H 9.785 V 42.924 h 1.668 v 4.416 h 4.361 v -4.416 z"
   id="path318" />

		<path
   inkscape:connector-curvature="0"
   style="fill:#ffffff"
   d="m 27.107,42.924 v 1.121 H 24.1 V 53 h -1.654 v -8.955 h -3.008 v -1.121 z"
   id="path320" />

		<path
   inkscape:connector-curvature="0"
   style="fill:#ffffff"
   d="m 36.705,42.924 h 1.668 V 53 h -1.668 v -6.932 l -2.256,5.605 H 33 L 30.73,46.068 V 53 H 29.062 V 42.924 h 1.668 l 2.994,6.891 z"
   id="path322" />

		<path
   inkscape:connector-curvature="0"
   style="fill:#ffffff"
   d="m 42.57,42.924 v 8.832 h 4.635 V 53 H 40.902 V 42.924 Z"
   id="path324" />

	</g>

	<g
   id="g332">
		<path
   inkscape:connector-curvature="0"
   style="fill:#ec6630"
   d="m 23.207,16.293 c -0.391,-0.391 -1.023,-0.391 -1.414,0 l -6,6 c -0.391,0.391 -0.391,1.023 0,1.414 l 6,6 C 21.988,29.902 22.244,30 22.5,30 c 0.256,0 0.512,-0.098 0.707,-0.293 0.391,-0.391 0.391,-1.023 0,-1.414 L 17.914,23 23.207,17.707 c 0.391,-0.391 0.391,-1.023 0,-1.414 z"
   id="path328" />

		<path
   inkscape:connector-curvature="0"
   style="fill:#ec6630"
   d="m 41.207,22.293 -6,-6 c -0.391,-0.391 -1.023,-0.391 -1.414,0 -0.391,0.391 -0.391,1.023 0,1.414 L 39.086,23 33.793,28.293 c -0.391,0.391 -0.391,1.023 0,1.414 0.195,0.195 0.451,0.293 0.707,0.293 0.256,0 0.512,-0.098 0.707,-0.293 l 6,-6 c 0.391,-0.391 0.391,-1.023 0,-1.414 z"
   id="path330" />

	</g>

</g>
      <g
         id="g336">
</g>
      <g
         id="g338">
</g>
      <g
         id="g340">
</g>
      <g
         id="g342">
</g>
      <g
         id="g344">
</g>
      <g
         id="g346">
</g>
      <g
         id="g348">
</g>
      <g
         id="g350">
</g>
      <g
         id="g352">
</g>
      <g
         id="g354">
</g>
      <g
         id="g356">
</g>
      <g
         id="g358">
</g>
      <g
         id="g360">
</g>
      <g
         id="g362">
</g>
      <g
         id="g364">
</g>
    </g>
    <g
       inkscape:export-ydpi="300.70242"
       inkscape:export-xdpi="300.70242"
       transform="matrix(2.0117722,0,0,2.0117722,-156.98538,12.372584)"
       id="g628">
      <g
         id="g562">
	<path
   inkscape:connector-curvature="0"
   style="fill:#e9e9e0"
   d="M 36.985,0 H 7.963 C 7.155,0 6.5,0.655 6.5,1.926 V 55 c 0,0.345 0.655,1 1.463,1 H 48.037 C 48.845,56 49.5,55.345 49.5,55 V 12.978 c 0,-0.696 -0.093,-0.92 -0.257,-1.085 L 37.607,0.257 C 37.442,0.093 37.218,0 36.985,0 Z"
   id="path540" />

	<polygon
   style="fill:#d9d7ca"
   points="37.5,12 49.349,12 37.5,0.151 "
   id="polygon542" />

	<path
   inkscape:connector-curvature="0"
   style="fill:#eeaf4b"
   d="M 48.037,56 H 7.963 C 7.155,56 6.5,55.345 6.5,54.537 V 39 h 43 V 54.537 C 49.5,55.345 48.845,56 48.037,56 Z"
   id="path544" />

	<g
   id="g550">
		<path
   inkscape:connector-curvature="0"
   style="fill:#ffffff"
   d="m 26.021,42.719 v 7.848 c 0,0.474 -0.087,0.873 -0.26,1.196 -0.174,0.323 -0.406,0.583 -0.697,0.779 -0.292,0.196 -0.627,0.333 -1.005,0.41 -0.378,0.077 -0.769,0.116 -1.169,0.116 -0.201,0 -0.436,-0.021 -0.704,-0.062 -0.268,-0.041 -0.547,-0.104 -0.834,-0.191 -0.287,-0.087 -0.563,-0.185 -0.827,-0.294 -0.265,-0.109 -0.488,-0.232 -0.67,-0.369 l 0.697,-1.107 c 0.091,0.063 0.221,0.13 0.39,0.198 0.169,0.068 0.353,0.132 0.554,0.191 0.2,0.06 0.41,0.111 0.629,0.157 0.219,0.046 0.424,0.068 0.615,0.068 0.482,0 0.868,-0.094 1.155,-0.28 0.287,-0.186 0.439,-0.504 0.458,-0.95 v -7.711 h 1.668 z"
   id="path546" />

		<path
   inkscape:connector-curvature="0"
   style="fill:#ffffff"
   d="m 34.184,50.238 c 0,0.364 -0.075,0.718 -0.226,1.06 -0.151,0.342 -0.362,0.643 -0.636,0.902 -0.274,0.259 -0.611,0.467 -1.012,0.622 -0.401,0.155 -0.857,0.232 -1.367,0.232 -0.219,0 -0.444,-0.012 -0.677,-0.034 -0.233,-0.022 -0.468,-0.062 -0.704,-0.116 -0.237,-0.055 -0.463,-0.13 -0.677,-0.226 -0.214,-0.096 -0.399,-0.212 -0.554,-0.349 l 0.287,-1.176 c 0.127,0.073 0.289,0.144 0.485,0.212 0.196,0.068 0.398,0.132 0.608,0.191 0.209,0.06 0.419,0.107 0.629,0.144 0.209,0.036 0.405,0.055 0.588,0.055 0.556,0 0.982,-0.13 1.278,-0.39 0.296,-0.26 0.444,-0.645 0.444,-1.155 0,-0.31 -0.105,-0.574 -0.314,-0.793 C 32.126,49.198 31.864,49 31.55,48.822 31.236,48.644 30.896,48.467 30.531,48.289 30.166,48.111 29.824,47.901 29.506,47.66 c -0.319,-0.241 -0.584,-0.526 -0.793,-0.854 -0.21,-0.328 -0.314,-0.738 -0.314,-1.23 0,-0.446 0.082,-0.843 0.246,-1.189 0.164,-0.346 0.385,-0.641 0.663,-0.882 0.278,-0.241 0.602,-0.426 0.971,-0.554 0.369,-0.128 0.759,-0.191 1.169,-0.191 0.419,0 0.843,0.039 1.271,0.116 0.428,0.077 0.774,0.203 1.039,0.376 -0.055,0.118 -0.119,0.248 -0.191,0.39 -0.073,0.142 -0.142,0.273 -0.205,0.396 -0.064,0.123 -0.119,0.226 -0.164,0.308 -0.046,0.082 -0.073,0.128 -0.082,0.137 C 33.061,44.456 33,44.42 32.931,44.374 32.862,44.328 32.764,44.283 32.637,44.237 32.509,44.191 32.34,44.16 32.131,44.141 c -0.21,-0.019 -0.479,-0.014 -0.807,0.014 -0.183,0.019 -0.355,0.07 -0.52,0.157 -0.165,0.087 -0.311,0.193 -0.438,0.321 -0.128,0.128 -0.229,0.271 -0.301,0.431 -0.073,0.159 -0.109,0.313 -0.109,0.458 0,0.364 0.104,0.658 0.314,0.882 0.209,0.224 0.469,0.419 0.779,0.588 0.31,0.169 0.646,0.333 1.012,0.492 0.364,0.159 0.704,0.354 1.019,0.581 0.315,0.227 0.576,0.513 0.786,0.854 0.212,0.342 0.318,0.781 0.318,1.319 z"
   id="path548" />

	</g>

	<g
   id="g560">
		<path
   inkscape:connector-curvature="0"
   style="fill:#eeaf4b"
   d="m 19.5,19 v -4 c 0,-0.551 0.448,-1 1,-1 0.553,0 1,-0.448 1,-1 0,-0.552 -0.447,-1 -1,-1 -1.654,0 -3,1.346 -3,3 v 4 c 0,1.103 -0.897,2 -2,2 -0.553,0 -1,0.448 -1,1 0,0.552 0.447,1 1,1 1.103,0 2,0.897 2,2 v 4 c 0,1.654 1.346,3 3,3 0.553,0 1,-0.448 1,-1 0,-0.552 -0.447,-1 -1,-1 -0.552,0 -1,-0.449 -1,-1 v -4 c 0,-1.2 -0.542,-2.266 -1.382,-3 0.84,-0.734 1.382,-1.8 1.382,-3 z"
   id="path552" />

		<circle
   style="fill:#eeaf4b"
   cx="27.5"
   cy="18.5"
   r="1.5"
   id="circle554" />

		<path
   inkscape:connector-curvature="0"
   style="fill:#eeaf4b"
   d="m 39.5,21 c -1.103,0 -2,-0.897 -2,-2 v -4 c 0,-1.654 -1.346,-3 -3,-3 -0.553,0 -1,0.448 -1,1 0,0.552 0.447,1 1,1 0.552,0 1,0.449 1,1 v 4 c 0,1.2 0.542,2.266 1.382,3 -0.84,0.734 -1.382,1.8 -1.382,3 v 4 c 0,0.551 -0.448,1 -1,1 -0.553,0 -1,0.448 -1,1 0,0.552 0.447,1 1,1 1.654,0 3,-1.346 3,-3 v -4 c 0,-1.103 0.897,-2 2,-2 0.553,0 1,-0.448 1,-1 0,-0.552 -0.447,-1 -1,-1 z"
   id="path556" />

		<path
   inkscape:connector-curvature="0"
   style="fill:#eeaf4b"
   d="m 27.5,24 c -0.553,0 -1,0.448 -1,1 v 3 c 0,0.552 0.447,1 1,1 0.553,0 1,-0.448 1,-1 v -3 c 0,-0.552 -0.447,-1 -1,-1 z"
   id="path558" />

	</g>

</g>
      <g
         id="g564">
</g>
      <g
         id="g566">
</g>
      <g
         id="g568">
</g>
      <g
         id="g570">
</g>
      <g
         id="g572">
</g>
      <g
         id="g574">
</g>
      <g
         id="g576">
</g>
      <g
         id="g578">
</g>
      <g
         id="g580">
</g>
      <g
         id="g582">
</g>
      <g
         id="g584">
</g>
      <g
         id="g586">
</g>
      <g
         id="g588">
</g>
      <g
         id="g590">
</g>
      <g
         id="g592">
</g>
    </g>
    <text
       inkscape:export-ydpi="300.70242"
       inkscape:export-xdpi="300.70242"
       id="text632"
       y="169.01489"
       x="-345.28049"
       style="font-style:normal;font-weight:normal;font-size:55.73069999999999879px;line-height:1.25;font-family:sans-serif;fill:#000000;fill-opacity:1;stroke:none;stroke-width:1.39327;"
       xml:space="preserve"><tspan
         style="font-style:normal;font-variant:normal;font-weight:bold;font-stretch:normal;font-size:55.73069999999999879px;font-family:'Neutra Text';-inkscape-font-specification:'Neutra Text Bold';font-variant-ligatures:normal;font-variant-caps:normal;font-variant-numeric:normal;font-variant-east-asian:normal;stroke-width:1.39327;fill:#000000;fill-opacity:1;"
         y="169.01489"
         x="-345.28049"
         id="tspan630"
         sodipodi:role="line">WAUSAU.JS</tspan></text>
  </g>
</svg>
