<?xml version="1.0" encoding="UTF-8" standalone="no"?>
<svg
   xmlns:dc="http://purl.org/dc/elements/1.1/"
   xmlns:cc="http://creativecommons.org/ns#"
   xmlns:rdf="http://www.w3.org/1999/02/22-rdf-syntax-ns#"
   xmlns:svg="http://www.w3.org/2000/svg"
   xmlns="http://www.w3.org/2000/svg"
   xmlns:xlink="http://www.w3.org/1999/xlink"
   xmlns:sodipodi="http://sodipodi.sourceforge.net/DTD/sodipodi-0.dtd"
   xmlns:inkscape="http://www.inkscape.org/namespaces/inkscape"
   inkscape:export-ydpi="117.8"
   inkscape:export-xdpi="117.8"
   inkscape:export-filename="/home/mowie/projects/logos/WI-Icon.png"
   version="1.0"
   width="780"
   height="900"
   id="svg2"
   sodipodi:docname="wi_js_no_asterisk.svg"
   inkscape:version="1.0beta2 (unknown)">
  <metadata
     id="metadata402">
    <rdf:RDF>
      <cc:Work
         rdf:about="">
        <dc:format>image/svg+xml</dc:format>
        <dc:type
           rdf:resource="http://purl.org/dc/dcmitype/StillImage" />
        <dc:title />
      </cc:Work>
    </rdf:RDF>
  </metadata>
  <sodipodi:namedview
     pagecolor="#ffffff"
     bordercolor="#666666"
     inkscape:document-rotation="0"
     borderopacity="1"
     objecttolerance="10"
     gridtolerance="10"
     guidetolerance="10"
     inkscape:pageopacity="0"
     inkscape:pageshadow="2"
     inkscape:window-width="1600"
     inkscape:window-height="836"
     id="namedview400"
     showgrid="false"
     showborder="false"
     inkscape:zoom="0.52954441"
     inkscape:cx="410.42871"
     inkscape:cy="548.58249"
     inkscape:window-x="0"
     inkscape:window-y="27"
     inkscape:window-maximized="1"
     inkscape:current-layer="layer1" />
  <defs
     id="defs4">
    <linearGradient
       id="linearGradient9119">
      <stop
         style="stop-color:#07b114;stop-opacity:1"
         offset="0"
         id="stop9121" />
      <stop
         style="stop-color:#20b718;stop-opacity:1"
         offset="1"
         id="stop9123" />
    </linearGradient>
    <linearGradient
       x1="572.86169"
       y1="738.72839"
       x2="284.63126"
       y2="392.06387"
       id="linearGradient9125"
       xlink:href="#linearGradient9119"
       gradientUnits="userSpaceOnUse" />
    <linearGradient
       x1="572.86169"
       y1="738.72839"
       x2="284.63126"
       y2="392.06387"
       id="linearGradient9127"
       xlink:href="#linearGradient9119"
       gradientUnits="userSpaceOnUse" />
    <linearGradient
       x1="572.86169"
       y1="738.72839"
       x2="284.63126"
       y2="392.06387"
       id="linearGradient9129"
       xlink:href="#linearGradient9119"
       gradientUnits="userSpaceOnUse" />
    <linearGradient
       x1="572.86169"
       y1="738.72839"
       x2="284.63126"
       y2="392.06387"
       id="linearGradient9131"
       xlink:href="#linearGradient9119"
       gradientUnits="userSpaceOnUse" />
    <linearGradient
       x1="572.86169"
       y1="738.72839"
       x2="284.63126"
       y2="392.06387"
       id="linearGradient9133"
       xlink:href="#linearGradient9119"
       gradientUnits="userSpaceOnUse" />
    <linearGradient
       x1="572.86169"
       y1="738.72839"
       x2="284.63126"
       y2="392.06387"
       id="linearGradient9135"
       xlink:href="#linearGradient9119"
       gradientUnits="userSpaceOnUse" />
    <linearGradient
       x1="572.86169"
       y1="738.72839"
       x2="284.63126"
       y2="392.06387"
       id="linearGradient9137"
       xlink:href="#linearGradient9119"
       gradientUnits="userSpaceOnUse" />
    <linearGradient
       x1="572.86169"
       y1="738.72839"
       x2="284.63126"
       y2="392.06387"
       id="linearGradient9139"
       xlink:href="#linearGradient9119"
       gradientUnits="userSpaceOnUse" />
    <linearGradient
       x1="572.86169"
       y1="738.72839"
       x2="284.63126"
       y2="392.06387"
       id="linearGradient9141"
       xlink:href="#linearGradient9119"
       gradientUnits="userSpaceOnUse" />
    <linearGradient
       x1="572.86169"
       y1="738.72839"
       x2="284.63126"
       y2="392.06387"
       id="linearGradient9143"
       xlink:href="#linearGradient9119"
       gradientUnits="userSpaceOnUse" />
    <linearGradient
       x1="572.86169"
       y1="738.72839"
       x2="284.63126"
       y2="392.06387"
       id="linearGradient9145"
       xlink:href="#linearGradient9119"
       gradientUnits="userSpaceOnUse" />
    <linearGradient
       x1="572.86169"
       y1="738.72839"
       x2="284.63126"
       y2="392.06387"
       id="linearGradient9147"
       xlink:href="#linearGradient9119"
       gradientUnits="userSpaceOnUse" />
    <linearGradient
       x1="572.86169"
       y1="738.72839"
       x2="284.63126"
       y2="392.06387"
       id="linearGradient9149"
       xlink:href="#linearGradient9119"
       gradientUnits="userSpaceOnUse" />
    <linearGradient
       x1="572.86169"
       y1="738.72839"
       x2="284.63126"
       y2="392.06387"
       id="linearGradient9151"
       xlink:href="#linearGradient9119"
       gradientUnits="userSpaceOnUse" />
    <linearGradient
       x1="572.86169"
       y1="738.72839"
       x2="284.63126"
       y2="392.06387"
       id="linearGradient9153"
       xlink:href="#linearGradient9119"
       gradientUnits="userSpaceOnUse" />
    <linearGradient
       x1="572.86169"
       y1="738.72839"
       x2="284.63126"
       y2="392.06387"
       id="linearGradient9155"
       xlink:href="#linearGradient9119"
       gradientUnits="userSpaceOnUse" />
    <linearGradient
       x1="572.86169"
       y1="738.72839"
       x2="284.63126"
       y2="392.06387"
       id="linearGradient9157"
       xlink:href="#linearGradient9119"
       gradientUnits="userSpaceOnUse" />
    <linearGradient
       x1="572.86169"
       y1="738.72839"
       x2="284.63126"
       y2="392.06387"
       id="linearGradient9159"
       xlink:href="#linearGradient9119"
       gradientUnits="userSpaceOnUse" />
    <linearGradient
       x1="517.65814"
       y1="718.28265"
       x2="280.54211"
       y2="328.68198"
       id="linearGradient9161"
       xlink:href="#linearGradient9119"
       gradientUnits="userSpaceOnUse" />
  </defs>
  <g
     id="layer1">
    <rect
       style="fill:#323330;fill-opacity:1;stroke:none;stroke-width:0;stroke-miterlimit:4;stroke-dasharray:none"
       id="rect1678"
       width="786.08429"
       height="786.08429"
       x="-61.032574"
       y="159.46764" />
    <g
       id="g1254"
       style="fill:#f0db4f;fill-opacity:1;stroke:#000000;stroke-opacity:1;stroke-width:2.13543307;stroke-miterlimit:4;stroke-dasharray:none" />
    <path
       id="path1996"
       style="fill:#f0db4f;fill-opacity:1;fill-rule:evenodd;stroke:none;stroke-width:4.335;stroke-linecap:butt;stroke-linejoin:miter;stroke-miterlimit:4;stroke-dasharray:none;stroke-opacity:1"
       d="m 236.98933,894.91729 c 0,0 0.8465,-4.65554 -0.2116,-5.92524 -1.0581,-1.26971 -3.3858,-6.77171 -2.9626,-8.67626 0.4232,-1.90453 -6.1369,-6.5601 -6.1369,-6.5601 0,0 -12.6969,-5.502 -18.6222,-5.71361 -5.9252,-0.21164 -16.2944,-6.5601 -17.1409,-8.46465 -0.8464,-1.90453 -6.9833,-11.42725 -5.7136,-16.50604 1.2697,-5.07878 -3.8091,-8.67626 -3.8091,-8.67626 0,0 -4.4439,-22.21967 -4.0207,-25.3939 0.4233,-3.17423 -1.2697,-9.09947 -1.2697,-9.09947 0,0 1.9046,-9.73436 3.5975,-11.8505 1.6929,-2.11616 5.9252,-6.56009 5.9252,-6.56009 l 2.9627,-6.77171 c 0,0 -0.6349,-11.42727 -6.7717,-12.27373 -6.1369,-0.84646 -8.0414,-14.38987 -8.0414,-14.38987 l 0.4232,-9.09951 -2.9626,-4.44393 0.2116,-11.00403 c 0,0 -2.751,-13.96663 -1.2697,-15.44794 1.4813,-1.48131 0.8464,-5.07878 0.8464,-5.07878 0,0 -3.9139,-19.16766 -4.5487,-20.22573 -0.6349,-1.05807 1.05419,-5.27106 1.05419,-5.27106 0.005,-4.15917 -3.35959,-3.02225 -5.81659,-3.07137 0,0 -16.2944,-16.50604 -17.7757,-16.92927 -1.4813,-0.42323 -12.9086,-3.17424 -12.9086,-3.17424 l -9.52267,-9.73433 c 0,0 -0.42324,-6.77171 -5.71363,-4.44394 -5.2904,2.32778 -9.09949,-7.82978 -9.09949,-7.82978 0,0 -6.77171,-10.5808 -6.56009,-11.63888 0.21161,-1.05808 -2.751011,-6.13686 -2.751011,-6.13686 l 0.21162,-5.07878 -3.80909,-2.32778 c 0,0 -0.21161,-6.56009 -4.86716,-4.65555 -4.65555,1.90454 -10.79242,-6.56009 -10.79242,-6.56009 l -12.0621,-4.23232 c 0,0 -10.15757,-9.52272 -10.79241,-14.38988 -0.63485,-4.86717 -15.44797,-6.98333 -15.44797,-6.98333 l -9.52271,-1.26969 c 0,0 -0.63485,-4.23232 -4.020704,-4.23232 -3.38586,0 -4.65555,-5.50201 -4.65555,-5.50201 l -4.65555,-3.17424 -9.09949,-11.42726 -4.86716,-0.84647 c 0,0 -4.86717,-2.96262 -1.2697,-8.46463 3.59747,-5.50201 3.59747,-8.46464 3.59747,-8.46464 l 2.53939,-1.26969 c 0,0 -2.75101,-2.96262 -2.32777,-5.71363 0.42323,-2.75101 4.0207,-8.67626 4.0207,-8.67626 l -1.48131,-3.59746 -1.90454,0.84646 0.63484,-10.15757 c 0,0 -3.80908,-4.65555 -3.38585,-7.19494 0.42323,-2.53939 5.2904,-5.07878 5.2904,-6.56009 0,-1.48131 0,-7.19494 0,-7.19494 0,0 -3.17424,-5.07878 -1.90455,-8.0414 1.2697,-2.96263 0,-13.12019 0,-13.12019 l 9.3111,-7.40656 c 0,0 -4.23231,-2.96262 -0.42323,-5.92524 3.80909,-2.96263 7.82979,-5.50202 7.19494,-7.61817 -0.63485,-2.11616 -2.75101,-4.44394 -3.38585,-5.2904 -0.63485,-0.84647 -3.59747,-1.90455 -3.17424,-4.65555 0.42323,-2.75101 -1.69293,-6.98333 -1.69293,-6.98333 l -4.0207,-3.80908 c 0,0 -1.48131,-3.17424 -4.23232,-1.2697 -2.75101,1.90454 -6.77171,-3.38585 -6.77171,-3.38585 0,0 -2.96262,-8.04141 -1.69293,-11.21565 1.2697,-3.17424 2.5394,-4.44393 2.11616,-5.2904 -0.42323,-0.84646 -1.48131,-3.17423 -0.21161,-4.86716 1.26969,-1.69293 6.56009,-4.23232 6.56009,-4.23232 0,0 3.38586,-7.61817 5.07878,-6.98332 1.69293,0.63484 -1.69292,-4.65555 -1.69292,-4.65555 0,0 4.0207,-2.32778 4.44393,-3.59747 0.42323,-1.2697 0.84646,-5.07879 2.53939,-5.07879 1.69293,0 6.13686,-5.07878 7.82979,-4.44393 1.69293,0.63485 0.63485,-3.17424 0.63485,-3.17424 l 10.580794,-4.0207 c 0,0 0.21162,-3.59747 3.38586,-2.75101 3.17423,0.84647 5.2904,-1.26969 5.2904,-1.26969 0,0 4.65555,-6.5601 6.7717,-6.34848 2.11616,0.21161 4.02071,1.69293 4.02071,1.69293 l 4.86716,-0.42323 c 0,0 -2.53939,-6.77172 0.42323,-7.40656 2.96263,-0.63485 2.11616,-1.48131 2.11616,-1.48131 l 3.59747,-89.72515 2.11616,-1.05808 1.48131,3.17424 7.82979,0.84646 c 0,0 1.2697,-2.96262 3.17424,-2.96262 1.90454,0 5.2904,-3.38585 4.23232,-4.65555 -1.05808,-1.26969 5.2904,-8.0414 6.56009,-6.56009 1.2697,1.48131 11.850491,12.06211 13.543421,12.06211 1.69293,0 5.92525,-2.5394 7.19494,-2.11616 1.2697,0.42323 5.2904,-1.90455 7.61817,-1.2697 2.32778,0.63485 7.19494,-3.17424 9.31109,-2.32777 2.1162,0.84646 6.9833,-3.17424 9.946,-2.75101 2.9626,0.42323 3.1742,-2.75101 3.1742,-2.75101 0,0 1.4813,-0.42323 6.1369,-0.21161 4.6555,0.21161 10.1575,-3.59747 12.2737,-2.96263 2.1161,0.63485 3.1742,-3.17423 3.1742,-3.17423 l 1.6929,2.32777 2.9627,-0.42323 c 0,0 1.4813,-4.44394 4.4439,-4.65555 2.9626,-0.21162 6.1369,-2.32778 7.8298,-2.32778 1.6929,0 5.0788,-7.61817 6.3485,-6.7717 1.2697,0.84646 0.6348,4.23231 0.6348,4.23231 0,0 2.751,-1.05808 4.8672,-1.05808 2.1161,0 6.7717,0.63485 6.7717,0.63485 l -0.8465,-4.86717 c 0,0 1.693,-1.90454 2.751,-0.84646 1.0581,1.05808 2.9627,0.84646 2.9627,0.84646 l 1.2697,-3.80908 c 0,0 5.9252,-1.2697 6.1368,-3.38586 0.2116,-2.11615 2.3278,-0.63484 2.3278,-0.63484 l 1.2432,1.74252 c 0,0 -0.7076,-3.13786 1.0846,-2.58899 2.0634,0.63197 5.9252,-3.38585 5.9252,-3.38585 l 3.8091,-1.2697 c 0,0 -0.6348,4.23232 1.2697,4.44394 1.9045,0.21161 4.0207,0.63484 4.0207,0.63484 0,0 1.6929,2.32778 1.4813,4.02071 -0.2116,1.69292 2.3278,2.32777 2.3278,2.32777 0,0 -1.2697,0.42323 -1.2697,1.90454 0,1.48132 -1.2697,4.02071 -1.4813,6.13687 -0.2116,2.11616 -3.1743,3.17423 -4.2323,3.17423 -1.0581,0 2.1161,2.32778 0.6348,4.44394 -1.4813,2.11616 -4.8672,2.32777 -4.8672,3.38585 0,1.05808 -0.8464,2.32778 -2.3277,3.38586 -1.4813,1.05808 4.0207,8.25302 2.1161,9.94595 -1.9045,1.69292 -6.1368,4.23231 -5.9252,5.29039 0.2116,1.05808 -1.6929,6.5601 -2.751,6.34848 -1.0581,-0.21162 -1.2697,4.86717 -1.2697,4.86717 0,0 4.4439,-0.42324 5.9252,-1.48131 1.4813,-1.05809 4.444,-4.44394 8.0414,-4.23232 3.5975,0.21161 6.7717,-5.2904 8.6763,-4.44394 1.9045,0.84647 4.4439,0.42323 4.4439,0.42323 l -4.6555,-5.50201 c 0,0 2.1161,-2.32778 4.0207,0.21162 1.9045,2.53939 3.3858,5.92524 4.6555,7.19494 1.2697,1.26969 0.8465,1.90454 2.751,3.38585 1.9046,1.48131 8.6763,4.0207 8.6763,4.0207 l 5.2904,-0.21161 5.7136,3.38585 3.8091,0.63485 c 0,0 -0.2116,4.44393 2.751,3.80909 2.9626,-0.63485 3.3858,-2.11616 5.2904,-1.69293 1.9045,0.42323 4.4439,4.65555 4.4439,4.65555 0,0 2.751,-1.05808 2.751,1.48131 0,2.53939 5.502,0.21162 6.1369,3.38585 0.6348,3.17424 3.3858,4.44394 2.3278,6.13687 -1.0581,1.69292 3.8091,7.40655 3.8091,7.40655 0,0 3.3858,3.59747 2.751,5.07879 -0.6349,1.48131 0.2116,4.86716 0.2116,4.86716 l 113.0029,31.53077 23.701,13.12019 3.1742,-1.05808 2.751,2.53939 3.3859,0.21161 1.4813,0.84647 1.058,1.26969 5.0788,-0.42323 c 0,0 6.7717,3.17424 8.6763,3.17424 1.9045,0 6.7717,-1.69293 6.9833,-2.53939 0.2116,-0.84646 6.1369,0 6.1369,0 0,0 4.8671,0.84646 4.4439,2.53939 -0.4232,1.69293 4.4439,-0.21162 5.7136,2.32777 1.2697,2.5394 6.1369,1.69293 6.1369,1.69293 0,0 2.5394,-2.53939 4.2323,-0.84646 1.6929,1.69293 9.5227,4.44393 9.5227,4.44393 0,0 2.5394,-0.21161 3.8091,1.69293 1.2697,1.90454 3.1742,-1.26969 3.1742,-1.26969 0,0 4.6556,-0.84647 5.5021,0.84646 0.8464,1.69293 3.5974,0.42323 3.809,2.75101 0.2117,2.32777 0,4.23231 0,4.23231 l 3.1743,4.65555 c 0,0 -2.9626,3.80909 -4.6556,3.80909 -1.6929,0 -2.751,5.07878 -0.4232,5.2904 2.3278,0.21161 6.5601,3.38585 6.5601,3.38585 0,0 3.8091,-0.84646 4.8672,-2.11616 1.058,-1.26969 4.2323,0.84647 3.5974,2.96263 -0.6348,2.11616 4.0207,5.71363 6.3485,4.0207 2.3278,-1.69293 6.1369,-0.84647 6.3485,0.84646 0.2116,1.69293 -1.2697,1.48131 0.8464,3.59747 2.1162,2.11616 7.6182,8.46464 7.6182,8.46464 0,0 -1.2697,1.69293 -2.751,0.84646 -1.4813,-0.84646 -0.2116,6.34848 -0.2116,6.34848 l 3.5975,2.11616 1.0581,6.56009 c 0,0 -1.4814,2.75101 -2.7511,1.2697 -1.2697,-1.48131 -3.5974,-0.21162 -2.3277,2.53939 1.2697,2.75101 2.751,3.59747 2.751,3.59747 0,0 -0.8465,3.38585 0,5.07878 0.8464,1.69293 -1.0581,5.2904 -3.8091,6.77171 -2.751,1.48131 -1.9045,6.98332 -1.9045,6.98332 l -1.9046,2.75101 c 0,0 1.2697,2.96262 2.1162,4.44393 0.8464,1.48132 5.502,-2.96262 7.4065,-0.84646 1.9046,2.11616 5.0788,1.69293 5.0788,1.69293 0,0 1.2697,-0.63485 1.9046,-2.32778 0.6348,-1.69292 2.3277,-1.48131 3.1742,-1.26969 0.8464,0.21161 1.4813,-2.96263 2.9626,-1.05808 1.4813,1.90454 0.6349,1.69293 1.4813,2.75101 0.8465,1.05807 1.0581,4.65555 -0.6348,6.13686 -1.6929,1.48131 -1.6929,4.44393 -2.751,5.71363 -1.0581,1.26969 -2.5394,0.84646 -2.3278,4.0207 0.2116,3.17424 1.2697,2.32777 -0.6349,3.80909 -1.9045,1.48131 -0.8464,5.07878 -0.8464,5.07878 0,0 -2.3278,0 -1.9046,1.90454 0.4233,1.90454 4.0207,3.80909 4.444,5.71363 0.4232,1.90454 6.56,7.61817 6.56,7.61817 l 5.9253,-0.42323 c 0,0 1.6929,2.32778 -1.6929,4.86717 -3.3859,2.53939 -2.1162,12.90857 -2.1162,12.90857 0,0 -6.9833,4.23232 -11.2156,4.0207 -4.2324,-0.21162 -12.697,5.71363 -12.2737,7.40656 0.4232,1.69292 2.5393,4.86716 0.8464,6.13686 -1.6929,1.26969 -2.9626,5.07878 -2.751,6.34847 0.2116,1.2697 -2.9626,0.84647 -2.9626,0.84647 0,0 -6.3485,14.81311 -8.253,15.23634 -1.9046,0.42323 -3.1743,15.44796 -4.444,15.65958 -1.2697,0.21162 3.5975,4.86717 3.5975,4.86717 0,0 0.2116,4.0207 -1.2697,2.53939 -1.4813,-1.48131 -3.8091,-1.05808 -3.5975,0.21161 0.2116,1.2697 -3.1742,-0.42323 -2.3277,2.11616 0.8464,2.53939 1.6929,6.98333 1.6929,6.98333 0,0 3.1742,-1.90455 5.9252,-0.63485 2.751,1.26969 6.5601,-4.65555 7.195,-8.67625 0.6348,-4.0207 10.3692,-7.82979 10.3692,-7.82979 0,0 3.1742,1.05808 4.0206,0.63485 0.8465,-0.42324 6.3485,-12.48534 6.1369,-15.02473 -0.2116,-2.53939 7.8298,-8.04141 7.8298,-10.15757 0,-2.11616 5.7136,-8.88786 7.4066,-7.82979 1.6929,1.05808 2.9626,-1.69292 2.9626,-1.69292 0,0 -0.6349,2.751 0.6348,3.17424 1.2697,0.42323 0.4233,-0.84647 1.9046,-2.96263 1.4813,-2.11616 3.1742,-2.751 5.2904,-1.26969 2.1161,1.48131 4.8671,-5.50201 4.8671,-5.50201 0,0 0.8465,1.90454 0.8465,4.86716 0,2.96262 3.8091,5.50201 3.8091,5.50201 0,0 2.9626,0.42323 4.4439,1.90455 1.4813,1.48131 3.3859,0.42323 3.1743,2.96262 -0.2116,2.53939 -4.6556,20.94997 -9.3111,26.6636 -4.6556,5.71363 -5.502,16.92928 -5.502,16.92928 0,0 -2.3278,4.0207 -2.3278,7.40655 0,3.38586 -2.751,8.25302 -2.751,11.21565 0,2.96262 -3.8091,10.58079 -3.1743,13.75503 0.6349,3.17424 3.1743,11.85049 4.0207,13.12019 0.8465,1.26969 -1.6929,10.36918 -3.3858,11.63887 -1.693,1.2697 -12.0621,7.40656 -12.2737,11.85049 -0.2117,4.44394 -1.9046,8.46464 -2.7511,9.52272 -0.8464,1.05808 -0.8464,3.80908 -0.6348,5.50201 0.2116,1.69293 -1.2697,3.17424 -1.9045,4.86717 -0.6349,1.69293 -1.2697,2.11617 -1.2697,5.07879 0,2.96262 -1.2697,14.81312 -0.4233,17.5641 0.8465,2.75102 3.8091,5.92525 2.751,8.46465 -1.058,2.53938 -1.4813,12.27371 -1.4813,12.27371 0,0 -2.3278,4.02072 -2.751,6.34849 -0.4232,2.32777 -5.502,7.82977 -5.7136,9.09948 -0.2116,1.2697 -0.4233,19.25704 -3.8091,23.27776 -3.3859,4.02069 -5.2904,6.56007 -5.2904,10.58079 0,4.02069 -2.5394,10.58079 -3.8091,11.21564 -1.2697,0.63485 1.693,14.81311 1.693,14.81311 0,0 2.3277,1.26971 1.058,4.23233 -1.2697,2.96262 0.8465,10.36918 1.4813,11.42725 0.6349,1.05809 0.4233,5.07878 -0.8464,5.50202 -1.2697,0.42322 -0.4232,7.40656 0.6348,7.61817 1.0581,0.21161 4.2323,4.02069 3.5975,5.29039 -0.6349,1.26971 1.6929,4.02069 1.6929,4.02069 0,0 0.4233,7.8298 -1.0581,8.67627 -1.4813,0.84646 1.693,8.25301 4.444,11.21564 2.751,2.96262 4.6555,5.50202 2.751,8.25301 -1.9046,2.75102 0.6348,4.23233 0.6348,4.23233 0,0 -1.2697,8.88787 -3.1742,10.15757 -1.9046,1.2697 1.2697,29.20298 1.2697,29.20298 l -1.0581,0.21164 c -108.9822,0.7664 -217.9644,-2.43761 -326.9466,-4.23233 z"
       inkscape:connector-curvature="0" />
    <path
       id="path2886"
       style="fill:#f0db4f;fill-opacity:1;fill-rule:evenodd;stroke:none;stroke-width:4.335;stroke-linecap:butt;stroke-linejoin:miter;stroke-miterlimit:4;stroke-dasharray:none;stroke-opacity:1"
       d="m 613.90103,535.70038 -8.911,-7.93885 c 0,0 2.1063,-6.15665 0,-7.93884 -2.1062,-1.78219 6.1567,-15.71567 6.1567,-15.71567 0,0 2.1062,-7.61482 4.8605,-8.4249 2.7543,-0.81009 3.5644,-12.47533 3.5644,-12.47533 0,0 3.2403,-4.21245 2.4303,-5.18455 -0.8101,-0.97211 4.8605,1.78219 4.5364,3.24034 -0.324,1.45816 0.8101,2.43026 1.4582,1.78219 0.648,-0.64807 -1.9442,-5.50858 0.8101,-6.80472 2.7543,-1.29614 5.1845,-3.24035 5.1845,-3.24035 0,0 0.1621,-6.48069 0.6481,-7.29077 0.4861,-0.81009 2.4303,0 3.0783,-0.64807 0.6481,-0.64807 1.1341,-8.58692 2.2683,-7.61481 1.1341,0.9721 3.8884,3.7264 3.8884,3.7264 l 5.8326,-0.97211 c 0,0 -1.1341,3.7264 -0.4861,5.34657 0.6481,1.62017 0,4.21245 0,4.21245 0,0 0.1621,3.88841 -0.81,3.56438 -0.9721,-0.32404 -2.9163,-4.21245 -2.9163,-4.21245 0,0 -2.4303,-4.05043 -2.9164,-3.24035 -0.486,0.81009 -0.324,3.07833 0.6481,4.05044 0.9721,0.9721 0.486,10.3691 -0.324,10.3691 -0.8101,0 1.1341,3.7264 1.1341,3.7264 0,0 -2.4303,-3.88842 -3.0783,-3.40237 -0.6481,0.48606 0.324,5.18455 0.9721,5.99464 0.648,0.81009 0,6.64271 -0.8101,5.50859 -0.8101,-1.13412 -2.9163,-2.91631 -3.0783,-1.94421 -0.1621,0.97211 0.9721,4.86052 0.9721,4.86052 0,0 -2.4303,1.45815 -3.0784,0.16202 -0.648,-1.29614 -1.9442,4.37446 -1.9442,4.37446 0,0 -6.3187,5.02254 -5.5086,8.4249 0.8101,3.40236 0.8101,7.29078 0.8101,7.29078 0,0 -0.9721,1.29613 -2.1062,2.59227 -1.1341,1.29614 -3.2403,1.94421 -2.7543,3.24035 0.4861,1.29613 2.5923,3.56437 0.6481,4.53648 -1.9442,0.9721 -3.2404,-0.48605 -3.7264,1.94421 -0.4861,2.43026 -2.1063,3.40236 -3.2404,2.43026 -1.1341,-0.97211 -1.7822,-0.32404 -1.2961,0.9721 0.486,1.29613 -1.6202,5.83262 -2.9163,4.6985 z"
       inkscape:connector-curvature="0" />
    <path
       id="path3773"
       style="fill:#f0db4f;fill-opacity:1;fill-rule:evenodd;stroke:none;stroke-width:4.335;stroke-linecap:butt;stroke-linejoin:miter;stroke-miterlimit:4;stroke-dasharray:none;stroke-opacity:1"
       d="m 609.20253,473.48576 c 0,0 -2.1062,2.26824 -3.2404,2.26824 -1.1341,0 2.1063,5.34657 2.1063,5.34657 0,0 3.8884,0.48605 4.0504,-0.97211 0.162,-1.45815 -1.2961,-0.81008 -1.4582,-2.59227 -0.162,-1.78219 -0.9721,-3.7264 -1.4581,-4.05043 z"
       inkscape:connector-curvature="0" />
    <path
       id="path4662"
       style="fill:#f0db4f;fill-opacity:1;fill-rule:evenodd;stroke:none;stroke-width:4.335;stroke-linecap:butt;stroke-linejoin:miter;stroke-miterlimit:4;stroke-dasharray:none;stroke-opacity:1"
       d="m 651.97503,448.5351 c 0,0 0,-2.7543 -0.8101,-3.56438 -0.81,-0.81009 1.6202,-1.45815 1.6202,-1.45815 l 0.4861,-4.53649 c 0,0 0.9721,4.05043 2.4302,3.56438 1.4582,-0.48605 5.3466,-1.94421 6.1567,0.64807 0.8101,2.59227 1.9442,2.26824 1.9442,2.26824 0,0 -2.2682,0.81009 -2.2682,2.26824 0,1.45816 0.81,2.43026 0.81,2.43026 0,0 -2.7542,-1.13412 -2.4302,0.81009 0.324,1.9442 1.4581,2.43026 1.4581,2.43026 0,0 -3.5643,-0.97211 -4.5365,-0.81009 -0.9721,0.16202 -1.7821,-4.05043 -2.7542,-2.59228 -0.9721,1.45816 -2.1063,2.43026 -2.1063,2.43026 0,0 -1.1341,-3.24034 0,-3.88841 z"
       inkscape:connector-curvature="0" />
    <path
       id="path5549"
       style="fill:#f0db4f;fill-opacity:1;fill-rule:evenodd;stroke:none;stroke-width:4.335;stroke-linecap:butt;stroke-linejoin:miter;stroke-miterlimit:4;stroke-dasharray:none;stroke-opacity:1"
       d="m 667.36673,439.62415 c 0,0 -5.1846,-0.81009 -2.7543,1.94421 2.4302,2.75429 3.8884,1.13412 3.8884,1.13412 z"
       inkscape:connector-curvature="0" />
    <path
       id="path6436"
       style="fill:#f0db4f;fill-opacity:1;fill-rule:evenodd;stroke:none;stroke-width:4.335;stroke-linecap:butt;stroke-linejoin:miter;stroke-miterlimit:4;stroke-dasharray:none;stroke-opacity:1"
       d="m 212.09823,200.48669 c 0,0 0.162,-2.75429 1.7822,-2.59227 1.6202,0.16201 2.9163,-2.59228 3.2403,-1.45816 0.3241,1.13412 -0.324,3.56438 0.1621,4.21245 0.486,0.64807 -2.9164,-0.9721 -3.5644,-0.16202 -0.6481,0.81009 -1.7822,0 -1.6202,0 z"
       inkscape:connector-curvature="0" />
    <path
       id="path6438"
       style="fill:#f0db4f;fill-opacity:1;fill-rule:evenodd;stroke:none;stroke-width:4.335;stroke-linecap:butt;stroke-linejoin:miter;stroke-miterlimit:4;stroke-dasharray:none;stroke-opacity:1"
       d="m 238.34503,201.29678 c 0,0 -1.7822,3.88841 -2.7543,3.88841 -0.9721,0 2.2683,2.91631 3.7264,3.56438 1.4582,0.64807 5.1846,0.64807 5.0225,-1.13412 -0.162,-1.78219 -0.9721,-3.88841 -2.1062,-3.56438 -1.1341,0.32404 -3.2403,-3.24034 -3.8884,-2.75429 z"
       inkscape:connector-curvature="0" />
    <path
       id="path6440"
       style="fill:#f0db4f;fill-opacity:1;fill-rule:evenodd;stroke:none;stroke-width:4.335;stroke-linecap:butt;stroke-linejoin:miter;stroke-miterlimit:4;stroke-dasharray:none;stroke-opacity:1"
       d="m 236.56283,195.62618 1.7822,-1.13413 c 0,0 -2.5923,-5.99463 -2.7543,-4.21244 -0.162,1.78219 1.2961,5.50858 0.9721,5.34657 z"
       inkscape:connector-curvature="0" />
    <path
       id="path6442"
       style="fill:#f0db4f;fill-opacity:1;fill-rule:evenodd;stroke:none;stroke-width:4.335;stroke-linecap:butt;stroke-linejoin:miter;stroke-miterlimit:4;stroke-dasharray:none;stroke-opacity:1"
       d="m 242.07143,196.7603 c 0,-1.13412 -0.162,-3.56438 1.4582,-2.59228 1.6201,0.9721 1.9442,1.62017 0.81,2.59228 -1.1341,0.9721 -1.6201,2.26824 -2.1062,1.45815 -0.486,-0.81009 -0.6481,-1.78219 -0.162,-1.45815 z"
       inkscape:connector-curvature="0" />
    <path
       id="path6444"
       style="fill:#f0db4f;fill-opacity:1;fill-rule:evenodd;stroke:none;stroke-width:4.335;stroke-linecap:butt;stroke-linejoin:miter;stroke-miterlimit:4;stroke-dasharray:none;stroke-opacity:1"
       d="m 240.93733,216.85043 -0.8101,-2.43025 c 0,0 -4.6985,4.37446 -3.0783,5.99463 1.6201,1.62018 4.0504,-3.24034 3.8884,-3.56438 z"
       inkscape:connector-curvature="0" />
    <path
       id="path6446"
       style="fill:#f0db4f;fill-opacity:1;fill-rule:evenodd;stroke:none;stroke-width:4.335;stroke-linecap:butt;stroke-linejoin:miter;stroke-miterlimit:4;stroke-dasharray:none;stroke-opacity:1"
       d="m 244.98773,220.73885 c 1.9442,-0.32404 4.8605,-1.62017 4.8605,-2.91631 0,-1.29614 0.9721,-1.62018 1.9442,-0.81009 0.9721,0.81009 5.5086,1.62017 4.0505,2.59228 -1.4582,0.9721 -2.1063,1.94421 -2.9163,1.29614 -0.8101,-0.64807 -3.8885,2.43025 -3.8885,2.43025 0,0 -0.81,0.48606 -2.7543,0.32404 -1.9442,-0.16202 -2.9163,-2.10622 -1.2961,-2.91631 z"
       inkscape:connector-curvature="0" />
    <path
       id="path6448"
       style="fill:#f0db4f;fill-opacity:1;fill-rule:evenodd;stroke:none;stroke-width:4.335;stroke-linecap:butt;stroke-linejoin:miter;stroke-miterlimit:4;stroke-dasharray:none;stroke-opacity:1"
       d="m 243.20553,223.65516 c 2.4303,3.24034 3.0783,3.07833 4.3745,3.07833 1.2961,0 1.4581,1.62017 0.162,2.75429 -1.2961,1.13412 -2.2682,1.45815 -5.5086,1.62017 -3.2403,0.16202 -3.7264,0.48606 -4.2124,2.10623 -0.4861,1.62017 -3.2404,4.53648 -3.7264,2.43026 -0.4861,-2.10623 -0.8101,-4.05043 0.162,-5.02254 0.9721,-0.9721 2.1062,-1.62017 0.486,-1.62017 -1.6201,0 -2.1062,-1.13412 0.8101,-1.78219 2.9163,-0.64807 4.0505,-1.94421 4.8605,-2.91631 0.8101,-0.97211 1.9443,-1.45816 2.5923,-0.64807 z"
       inkscape:connector-curvature="0" />
    <path
       id="path6450"
       style="fill:#f0db4f;fill-opacity:1;fill-rule:evenodd;stroke:none;stroke-width:4.335;stroke-linecap:butt;stroke-linejoin:miter;stroke-miterlimit:4;stroke-dasharray:none;stroke-opacity:1"
       d="m 264.10573,215.5543 c 0.8101,1.13412 0.6481,2.10622 0.6481,2.10622 0,0 5.1846,-4.05043 5.1846,-5.18455 0,-1.13412 -0.1621,-2.26824 -0.1621,-2.26824 0,0 -1.2961,1.13412 -2.4302,2.43026 -1.1341,1.29614 -4.0504,2.91631 -4.0504,2.91631 z"
       inkscape:connector-curvature="0" />
    <path
       id="path6452"
       style="fill:#f0db4f;fill-opacity:1;fill-rule:evenodd;stroke:none;stroke-width:4.335;stroke-linecap:butt;stroke-linejoin:miter;stroke-miterlimit:4;stroke-dasharray:none;stroke-opacity:1"
       d="m 268.31823,196.11223 c 0,0 1.4581,-5.34657 0.6481,-6.80473 -0.8101,-1.45815 3.8884,-5.99464 3.8884,-5.99464 l 1.2961,0.48606 c 0,0 1.6202,-1.78219 1.9442,-0.64807 0.3241,1.13412 0,2.91631 -0.8101,3.72639 -0.8101,0.81009 -0.324,3.40237 0.3241,4.37447 0.648,0.9721 -6.4807,5.6706 -7.2908,4.86052 z"
       inkscape:connector-curvature="0" />
    <path
       id="path7339"
       style="fill:#f0db4f;fill-opacity:1;fill-rule:evenodd;stroke:none;stroke-width:4.335;stroke-linecap:butt;stroke-linejoin:miter;stroke-miterlimit:4;stroke-dasharray:none;stroke-opacity:1"
       d="m 247.58003,208.42554 c 0,0 1.4581,-4.86052 3.0783,-4.53648 1.6202,0.32403 3.4024,-2.10623 4.6985,-1.45816 1.2962,0.64807 1.6202,-1.62017 2.7543,-0.81009 1.1341,0.81009 3.8884,-1.62017 4.0504,-0.32403 0.1621,1.29614 -0.648,4.53648 -1.7822,5.02253 -1.1341,0.48606 -1.1341,4.6985 -1.9442,2.91631 -0.81,-1.78219 -3.0783,-1.9442 -3.4023,-0.64807 -0.3241,1.29614 -1.6202,-0.16201 -4.2125,0.32404 -2.5922,0.48605 -1.4581,2.59228 -2.2682,2.10622 -0.8101,-0.48605 -2.4303,-2.26824 -0.9721,-2.59227 z"
       inkscape:connector-curvature="0" />
    <path
       id="path7341"
       style="fill:#f0db4f;fill-opacity:1;fill-rule:evenodd;stroke:none;stroke-width:4.335;stroke-linecap:butt;stroke-linejoin:miter;stroke-miterlimit:4;stroke-dasharray:none;stroke-opacity:1"
       d="m 248.55213,198.38047 c 0,0 -2.9163,1.78219 -2.5923,3.07833 0.324,1.29614 3.4024,0.32403 3.7264,-0.32404 0.324,-0.64807 -1.2961,-3.24034 -1.1341,-2.75429 z"
       inkscape:connector-curvature="0" />
    <path
       id="path7343"
       style="fill:#f0db4f;fill-opacity:1;fill-rule:evenodd;stroke:none;stroke-width:4.335;stroke-linecap:butt;stroke-linejoin:miter;stroke-miterlimit:4;stroke-dasharray:none;stroke-opacity:1"
       d="m 252.27853,194.33004 c 0,0 -2.2683,0.16201 -1.6202,1.45815 0.6481,1.29614 2.1062,1.62017 2.1062,1.62017 0,0 1.6202,-2.10622 -0.486,-3.07832 z"
       inkscape:connector-curvature="0" />
    <path
       id="path7345"
       style="fill:#f0db4f;fill-opacity:1;fill-rule:evenodd;stroke:none;stroke-width:4.335;stroke-linecap:butt;stroke-linejoin:miter;stroke-miterlimit:4;stroke-dasharray:none;stroke-opacity:1"
       d="m 256.81503,190.92767 c -1.1342,1.13413 -1.4582,0.16202 -0.4861,1.94421 0.9721,1.78219 1.4582,1.94421 0.9721,3.40236 -0.486,1.45816 2.1062,1.62018 2.4303,0.64807 0.324,-0.9721 0.648,-2.26824 -0.162,-3.40236 -0.8101,-1.13412 -1.6202,-3.56438 -2.7543,-2.59228 z"
       inkscape:connector-curvature="0" />
    <path
       id="path7347"
       style="fill:#f0db4f;fill-opacity:1;fill-rule:evenodd;stroke:none;stroke-width:4.335;stroke-linecap:butt;stroke-linejoin:miter;stroke-miterlimit:4;stroke-dasharray:none;stroke-opacity:1"
       d="m 245.47383,187.36329 c -2.1063,2.26825 -3.8885,4.21245 -2.2683,4.86052 1.6202,0.64807 2.9163,-0.64807 3.2404,-1.78219 0.324,-1.13412 -0.4861,-2.91631 -0.9721,-3.07833 z"
       inkscape:connector-curvature="0" />
    <g
       style="font-style:normal;font-weight:normal;font-size:276.451px;line-height:1.25;font-family:sans-serif;fill:#323330;fill-opacity:1;stroke:none;stroke-width:6.91127;stroke-opacity:1"
       id="text971"
       aria-label="JS">
      <path
         id="path2311"
         style="font-style:normal;font-variant:normal;font-weight:bold;font-stretch:normal;font-size:276.451px;font-family:'Neutra Text';-inkscape-font-specification:'Neutra Text Bold';font-variant-ligatures:normal;font-variant-caps:normal;font-variant-numeric:normal;font-variant-east-asian:normal;fill:#323330;fill-opacity:1;stroke:none;stroke-width:6.91127;stroke-opacity:1"
         d="m 333.92851,886.23281 c 34.27992,0 57.77825,-18.24577 57.77825,-58.33116 V 695.75808 h -38.70313 v 131.59067 c 0,19.35157 -8.01708,24.32769 -20.73383,24.32769 -13.26965,0 -18.79866,-9.12289 -24.88059,-19.90447 l -31.51541,19.07511 c 9.12288,19.35157 27.0922,35.38573 58.05471,35.38573 z" />
      <path
         id="path2313"
         style="font-style:normal;font-variant:normal;font-weight:bold;font-stretch:normal;font-size:276.451px;font-family:'Neutra Text';-inkscape-font-specification:'Neutra Text Bold';font-variant-ligatures:normal;font-variant-caps:normal;font-variant-numeric:normal;font-variant-east-asian:normal;fill:#323330;fill-opacity:1;stroke:none;stroke-width:6.91127;stroke-opacity:1"
         d="m 483.2116,886.23281 c 36.76798,0 64.13663,-19.07512 64.13663,-53.90794 0,-32.34477 -18.52222,-46.72022 -51.41989,-60.81922 l -9.67578,-4.14677 c -16.58706,-7.18772 -23.77478,-11.88739 -23.77478,-23.49833 0,-9.39933 7.18772,-16.58706 18.52221,-16.58706 11.05804,0 18.24577,4.69967 24.88059,16.58706 l 30.13316,-19.35157 c -12.71675,-22.39253 -30.40961,-30.96251 -55.01375,-30.96251 -34.55637,0 -56.67245,22.11608 -56.67245,51.14343 0,31.51542 18.52221,46.44377 46.44376,58.33116 l 9.67579,4.14677 c 17.69286,7.74062 28.198,12.44029 28.198,25.70994 0,11.05804 -10.22869,19.07512 -26.26284,19.07512 -19.07512,0 -29.85671,-9.95224 -38.15024,-23.49834 l -31.51541,18.24577 c 11.33449,22.39253 34.55637,39.53249 70.495,39.53249 z" />
    </g>
    <g
       style="font-style:normal;font-weight:normal;font-size:52.0372px;line-height:1.25;font-family:sans-serif;fill:#323330;fill-opacity:1;stroke:none;stroke-width:1.30093;stroke-opacity:1"
       id="text1091"
       aria-label="{  }">
      <path
         id="path2316"
         style="font-style:normal;font-variant:normal;font-weight:normal;font-stretch:normal;font-size:52.0372px;font-family:'Neutra Text';-inkscape-font-specification:'Neutra Text Normal';font-variant-ligatures:normal;font-variant-caps:normal;font-variant-numeric:normal;font-variant-east-asian:normal;fill:#323330;fill-opacity:1;stroke:none;stroke-width:1.30093;stroke-opacity:1"
         d="m 328.08802,542.5769 h 4.42317 v -5.93224 h -3.79872 c -1.45704,0 -1.76927,-0.62445 -1.76927,-1.76927 v -7.75354 c 0,-3.74668 -2.02945,-5.04761 -4.83945,-5.51594 2.81,-0.46834 4.83945,-1.76927 4.83945,-5.51595 v -10.04318 c 0,-1.14481 0.31223,-1.76926 1.76927,-1.76926 h 3.79872 v -5.93224 h -4.42317 c -4.21501,0 -8.22187,1.61315 -8.22187,7.49336 v 9.36669 c 0,2.44575 -0.93667,3.43446 -2.96612,3.43446 h -3.01816 v 5.93224 h 3.01816 c 2.02945,0 2.96612,0.9887 2.96612,3.43445 v 7.07706 c 0,5.88021 4.00686,7.49336 8.22187,7.49336 z" />
      <path
         id="path2318"
         style="font-style:normal;font-variant:normal;font-weight:normal;font-stretch:normal;font-size:52.0372px;font-family:'Neutra Text';-inkscape-font-specification:'Neutra Text Normal';font-variant-ligatures:normal;font-variant-caps:normal;font-variant-numeric:normal;font-variant-east-asian:normal;fill:#323330;fill-opacity:1;stroke:none;stroke-width:1.30093;stroke-opacity:1"
         d="m 358.63371,542.5769 h 4.42316 c 4.21502,0 8.22188,-1.61315 8.22188,-7.49336 v -7.07706 c 0,-2.44575 0.93667,-3.43445 2.96612,-3.43445 h 3.01816 v -5.93224 h -3.01816 c -2.02945,0 -2.96612,-0.98871 -2.96612,-3.43446 v -9.36669 c 0,-5.88021 -4.00686,-7.49336 -8.22188,-7.49336 h -4.42316 v 5.93224 h 3.79872 c 1.45704,0 1.76926,0.62445 1.76926,1.76926 v 10.04318 c 0,3.74668 2.02945,5.04761 4.83946,5.51595 -2.81001,0.46833 -4.83946,1.76926 -4.83946,5.51594 v 7.75354 c 0,1.14482 -0.31222,1.76927 -1.76926,1.76927 h -3.79872 z" />
    </g>
  </g>
</svg>
